<svg width="164" height="89" viewBox="0 0 164 89" fill="none" xmlns="http://www.w3.org/2000/svg">
<path d="M88.2785 36.4453C88.7514 32.4243 88.1929 29.7104 85.8042 27.2261C83.4381 24.7436 79.9578 23.3246 75.3634 22.969C72.1654 22.7215 69.1937 23.055 66.4486 23.9697C63.7277 24.8637 61.4362 26.208 59.5737 28.0025C57.734 29.7988 56.515 31.9137 55.9171 34.347C55.4824 36.1395 55.4931 37.7406 55.9493 39.1512C56.4071 40.539 57.1832 41.7714 58.2773 42.848C59.3713 43.9246 60.6454 44.8686 62.1002 45.68C63.5774 46.4931 65.0856 47.1959 66.6255 47.7884L73.4553 50.4136C75.4803 51.179 77.4805 52.1114 79.4562 53.2111C81.4323 54.3109 83.1644 55.6284 84.6529 57.1639C86.1417 58.6992 87.1884 60.5272 87.7928 62.6478C88.4199 64.7705 88.385 67.2473 87.6875 70.079C86.7661 73.7497 84.997 76.9602 82.3802 79.7109C79.7878 82.4408 76.4994 84.5083 72.5151 85.913C68.5308 87.318 64.0161 87.825 58.9714 87.4346C54.2643 87.0703 50.3611 85.9904 47.2612 84.1953C44.1634 82.3773 41.9566 80.0313 40.6404 77.1566C39.3245 74.2822 38.9885 71.0438 39.6328 67.4416L46.1189 67.9436C45.6591 70.6359 45.9865 72.9718 47.1005 74.9515C48.2369 76.9332 49.949 78.5082 52.2367 79.6774C54.5488 80.8255 57.2587 81.52 60.3666 81.7606C63.8124 82.0273 67.0214 81.7006 69.9934 80.781C72.9675 79.8391 75.4695 78.4094 77.4998 76.4926C79.5546 74.5554 80.9149 72.226 81.5811 69.5047C82.1685 67.2058 82.0403 65.2235 81.1964 63.5577C80.3749 61.8934 79.0039 60.4459 77.0836 59.2154C75.1874 57.964 72.898 56.8174 70.2153 55.7758L62.4995 52.7442C57.4647 50.7764 53.7974 48.2722 51.4975 45.2311C49.22 42.192 48.6144 38.4932 49.6801 34.1349C50.6015 30.4639 52.3992 27.3232 55.073 24.7123C57.7709 22.0808 61.0169 20.1228 64.8107 18.8385C68.6042 17.5541 72.6293 17.0766 76.8859 17.4061C81.1875 17.739 84.785 18.8177 87.6786 20.6422C90.5945 22.4684 92.6749 24.8386 93.9198 27.7528C95.1892 30.6464 95.4912 33.8821 94.8263 37.4599L88.2785 36.4453Z" fill="#75BF3B"/>
<path d="M38.0925 23.7334C49.0495 24.928 69.3202 29.7655 67.8332 23.7334" stroke="black" stroke-width="0.5"/>
<path d="M92.7988 60.9519V77.1335H89.783V42.6122H92.7988V55.3048H93.0698C93.6796 53.9677 94.6228 52.9 95.8993 52.1023C97.1868 51.3046 98.8131 50.9055 100.778 50.9055C102.54 50.9055 104.088 51.2651 105.421 51.9842C106.753 52.7036 107.793 53.7654 108.538 55.1701C109.283 56.5748 109.656 58.3053 109.656 60.3618V77.1335H106.624V60.5472C106.624 58.4121 106.025 56.7321 104.828 55.5071C103.642 54.2712 102.038 53.653 100.016 53.653C98.6267 53.653 97.3902 53.9452 96.3057 54.5296C95.2215 55.1141 94.363 55.9566 93.7306 57.0581C93.1095 58.1481 92.7988 59.446 92.7988 60.9519ZM112.861 77.1335V51.2426H115.894V77.1335H112.861ZM114.403 46.7926C113.781 46.7926 113.25 46.5849 112.81 46.169C112.369 45.7421 112.149 45.2306 112.149 44.6352C112.149 44.0395 112.369 43.5337 112.81 43.118C113.25 42.6911 113.781 42.4775 114.403 42.4775C115.024 42.4775 115.555 42.6911 115.995 43.118C116.436 43.5337 116.656 44.0395 116.656 44.6352C116.656 45.2306 116.436 45.7421 115.995 46.169C115.555 46.5849 115.024 46.7926 114.403 46.7926ZM122.114 60.9519V77.1335H119.098V51.2426H122.029V55.3048H122.3C122.91 53.979 123.859 52.9169 125.146 52.1192C126.445 51.3102 128.049 50.9055 129.958 50.9055C131.709 50.9055 133.245 51.2707 134.566 52.0011C135.899 52.7203 136.932 53.7823 137.667 55.187C138.412 56.5918 138.785 58.3166 138.785 60.3618V77.1335H135.769V60.5472C135.769 58.4234 135.17 56.7433 133.973 55.5071C132.787 54.2712 131.195 53.653 129.195 53.653C127.829 53.653 126.615 53.9452 125.553 54.5296C124.491 55.1141 123.65 55.9566 123.029 57.0581C122.419 58.1481 122.114 59.446 122.114 60.9519ZM152.477 77.6729C150.048 77.6729 147.948 77.111 146.174 75.9872C144.401 74.8525 143.029 73.2849 142.057 71.2845C141.097 69.2731 140.617 66.9582 140.617 64.3398C140.617 61.7327 141.097 59.4178 142.057 57.3951C143.029 55.3612 144.367 53.771 146.073 52.6247C147.789 51.4674 149.771 50.8886 152.019 50.8886C153.431 50.8886 154.792 51.147 156.102 51.6641C157.412 52.1696 158.587 52.9508 159.626 54.0069C160.677 55.0521 161.507 56.3725 162.117 57.9683C162.727 59.5528 163.032 61.4292 163.032 63.5981V65.0815H142.701V62.4352H159.948C159.948 60.7718 159.609 59.2775 158.932 57.9514C158.265 56.614 157.333 55.5579 156.136 54.7824C154.95 54.0069 153.578 53.6195 152.019 53.6195C150.37 53.6195 148.919 54.0576 147.665 54.934C146.411 55.8106 145.429 56.9682 144.717 58.4065C144.017 59.8447 143.661 61.4182 143.65 63.1261V64.7106C143.65 66.7671 144.006 68.5649 144.717 70.1046C145.44 71.6328 146.462 72.8185 147.784 73.6611C149.105 74.5039 150.67 74.9255 152.477 74.9255C153.708 74.9255 154.786 74.7344 155.712 74.3523C156.65 73.9702 157.435 73.459 158.067 72.8185C158.711 72.1668 159.197 71.453 159.525 70.6778L162.388 71.6049C161.992 72.6948 161.343 73.7005 160.44 74.622C159.547 75.5434 158.429 76.2851 157.085 76.847C155.752 77.3976 154.216 77.6729 152.477 77.6729Z" fill="#75BF3B" fill-opacity="0.89"/>
<path fill-rule="evenodd" clip-rule="evenodd" d="M38.2297 13.4975C38.3406 13.5139 38.4489 13.5362 38.5547 13.564L38.5574 13.5461L42.9812 14.2023L47.0141 17.4663L44.6695 33.113L39.8551 35.0647L35.4313 34.4085L35.4333 34.394C35.3239 34.3898 35.2139 34.3794 35.103 34.3631L2.98932 29.5997C1.36049 29.3581 0.236939 27.8485 0.479777 26.228L2.72712 11.2308C2.96996 9.61024 4.48723 8.4924 6.11605 8.734L38.2297 13.4975ZM39.3097 28.5033C41.7521 28.8713 44.0317 27.1997 44.4015 24.7697C44.7712 22.3397 43.0913 20.0716 40.6488 19.7036C38.2064 19.3357 35.9265 21.0073 35.5568 23.4373C35.187 25.8673 36.8673 28.1354 39.3097 28.5033Z" fill="black"/>
<path d="M92.7309 13.9736C92.5953 12.6139 92.0135 11.5576 90.9857 10.8047C89.9579 10.0518 88.563 9.67532 86.801 9.67532C85.6038 9.67532 84.593 9.84388 83.7685 10.181C82.944 10.5069 82.3113 10.962 81.8709 11.5464C81.4418 12.1307 81.2271 12.7937 81.2271 13.5354C81.2044 14.1534 81.3344 14.6928 81.6168 15.1535C81.9105 15.6143 82.3113 16.0132 82.8197 16.3503C83.3281 16.6762 83.9152 16.9628 84.5816 17.21C85.2481 17.446 85.9595 17.6482 86.7163 17.8168L89.8338 18.5585C91.3474 18.8956 92.7366 19.3451 94.0015 19.907C95.2664 20.4688 96.3622 21.1599 97.2884 21.9802C98.2145 22.8006 98.9316 23.767 99.44 24.8795C99.9595 25.992 100.225 27.2674 100.236 28.7058C100.225 30.8186 99.6828 32.6502 98.6099 34.2009C97.5481 35.7403 96.0118 36.9373 94.0015 37.7911C92.0022 38.634 89.5908 39.0555 86.7673 39.0555C83.9662 39.0555 81.5265 38.6283 79.4481 37.7745C77.3811 36.9204 75.7662 35.656 74.6027 33.9816C73.4508 32.2963 72.8464 30.2116 72.79 27.7282H79.8886C79.9679 28.8856 80.3009 29.852 80.8884 30.6275C81.4868 31.3914 82.2833 31.9702 83.2771 32.3636C84.2823 32.7457 85.4174 32.9368 86.6826 32.9368C87.9249 32.9368 89.0037 32.757 89.9185 32.3974C90.8446 32.0376 91.5618 31.5377 92.0702 30.8972C92.5783 30.2567 92.8326 29.5205 92.8326 28.6889C92.8326 27.9136 92.6009 27.2618 92.1379 26.7336C91.6861 26.2055 91.0197 25.756 90.1386 25.3852C89.2691 25.0143 88.2016 24.6772 86.9367 24.3738L83.1584 23.4299C80.2333 22.7219 77.9235 21.615 76.2293 20.1092C74.535 18.6034 73.6935 16.5751 73.7049 14.0242C73.6935 11.934 74.2526 10.108 75.3821 8.54597C76.523 6.98399 78.0872 5.76472 80.0749 4.88821C82.0629 4.01168 84.3219 3.57345 86.852 3.57345C89.4271 3.57345 91.6748 4.01168 93.5948 4.88821C95.5264 5.76472 97.0286 6.98399 98.1015 8.54597C99.1746 10.108 99.7281 11.9172 99.7618 13.9736H92.7309ZM116.491 12.6757V18.0696H100.82V12.6757H116.491ZM104.378 6.47268H111.595V30.6106C111.595 31.2737 111.697 31.7905 111.9 32.1613C112.103 32.5208 112.386 32.7736 112.747 32.9199C113.12 33.0658 113.549 33.1391 114.035 33.1391C114.374 33.1391 114.712 33.1109 115.051 33.0545C115.39 32.9872 115.65 32.9368 115.83 32.903L116.966 38.2462C116.604 38.3587 116.096 38.488 115.441 38.634C114.786 38.7915 113.99 38.887 113.052 38.9205C111.313 38.9879 109.788 38.7577 108.478 38.2296C107.179 37.7012 106.168 36.881 105.445 35.7685C104.722 34.656 104.366 33.2512 104.378 31.5546V6.47268ZM118.807 38.5666V12.6757H126.025V38.5666H118.807ZM122.433 9.33821C121.36 9.33821 120.439 8.98423 119.671 8.27627C118.915 7.55709 118.536 6.69744 118.536 5.69728C118.536 4.7084 118.915 3.86 119.671 3.15203C120.439 2.43284 121.36 2.07324 122.433 2.07324C123.506 2.07324 124.421 2.43284 125.178 3.15203C125.946 3.86 126.33 4.7084 126.33 5.69728C126.33 6.69744 125.946 7.55709 125.178 8.27627C124.421 8.98423 123.506 9.33821 122.433 9.33821ZM136.638 4.04541V38.5666H129.421V4.04541H136.638ZM147.251 4.04541V38.5666H140.034V4.04541H147.251Z" fill="#75BF3B"/>
</svg>
